{
  "accessors": [
    {
      "bufferView": 2,
      "componentType": 5126,
      "count": 29791,
      "max": [
        0.2406294047832489,
        0.5,
        0.3917335867881775
      ],
      "min": [
        -0.2406294047832489,
        -0.5,
        -0.3917335867881775
      ],
      "type": "VEC3"
    },
    {
      "bufferView": 2,
      "byteOffset": 357492,
      "componentType": 5126,
      "count": 29791,
      "max": [
        0.999947190284729,
        0.999630331993103,
        0.9999969005584717
      ],
      "min": [
        -0.9999714493751526,
        -1.0,
        -0.9999680519104004
      ],
      "type": "VEC3"
    },
    {
      "bufferView": 3,
      "componentType": 5126,
      "count": 29791,
      "max": [
        0.9999898076057434,
        0.9999614357948303,
        0.9999130964279175,
        1.0
      ],
      "min": [
        -0.9999938607215881,
        -0.9999964237213135,
        -0.9999244213104248,
        -1.0
      ],
      "type": "VEC4"
    },
    {
      "bufferView": 1,
      "componentType": 5126,
      "count": 29791,
      "max": [
        1.0,
        1.0
      ],
      "min": [
        0.0,
        0.0
      ],
      "type": "VEC2"
    },
    {
      "bufferView": 1,
      "byteOffset": 238328,
      "componentType": 5126,
      "count": 29791,
      "max": [
        1.0,
        1.0
      ],
      "min": [
        0.0,
        0.0
      ],
      "type": "VEC2"
    },
    {
      "bufferView": 1,
      "byteOffset": 476656,
      "componentType": 5126,
      "count": 29791,
      "max": [
        1.0,
        1.0
      ],
      "min": [
        0.0,
        0.0
      ],
      "type": "VEC2"
    },
    {
      "bufferView": 1,
      "byteOffset": 714984,
      "componentType": 5126,
      "count": 29791,
      "max": [
        1.0,
        1.0
      ],
      "min": [
        0.0,
        0.0
      ],
      "type": "VEC2"
    },
    {
      "bufferView": 0,
      "componentType": 5125,
      "count": 146865,
      "type": "SCALAR"
    }
  ],
  "asset": {
    "extras": {
      "author": "lawlietrecluze (https://sketchfab.com/lawlietrecluze)",
      "license": "CC-BY-4.0 (http://creativecommons.org/licenses/by/4.0/)",
      "source": "https://sketchfab.com/3d-models/android-cyborg-anime-girl-5fda47ea8ca048f7939f78da94aea54f",
      "title": "Android Cyborg Anime Girl"
    },
    "generator": "Sketchfab-17.26.0",
    "version": "2.0"
  },
  "bufferViews": [
    {
      "buffer": 0,
      "byteLength": 587460,
      "name": "floatBufferViews",
      "target": 34963
    },
    {
      "buffer": 0,
      "byteLength": 953312,
      "byteOffset": 587460,
      "byteStride": 8,
      "name": "floatBufferViews",
      "target": 34962
    },
    {
      "buffer": 0,
      "byteLength": 714984,
      "byteOffset": 1540772,
      "byteStride": 12,
      "name": "floatBufferViews",
      "target": 34962
    },
    {
      "buffer": 0,
      "byteLength": 476656,
      "byteOffset": 2255756,
      "byteStride": 16,
      "name": "floatBufferViews",
      "target": 34962
    }
  ],
  "buffers": [
    {
      "byteLength": 2732412,
      "uri": "scene.bin"
    }
  ],
  "images": [
    {
      "uri": "textures/tripo_material_6773aeb8-c70a-41ca-9a17-86ca96f39d1b_baseColor.jpeg"
    },
    {
      "uri": "textures/tripo_material_6773aeb8-c70a-41ca-9a17-86ca96f39d1b_metallicRoughness.png"
    },
    {
      "uri": "textures/tripo_material_6773aeb8-c70a-41ca-9a17-86ca96f39d1b_normal.jpeg"
    }
  ],
  "materials": [
    {
      "name": "tripo_material_6773aeb8-c70a-41ca-9a17-86ca96f39d1b",
      "normalTexture": {
        "index": 2
      },
      "pbrMetallicRoughness": {
        "baseColorTexture": {
          "index": 0
        },
        "metallicRoughnessTexture": {
          "index": 1
        }
      }
    }
  ],
  "meshes": [
    {
      "name": "Object_0",
      "primitives": [
        {
          "attributes": {
            "NORMAL": 1,
            "POSITION": 0,
            "TANGENT": 2,
            "TEXCOORD_0": 3,
            "TEXCOORD_1": 4,
            "TEXCOORD_2": 5,
            "TEXCOORD_3": 6
          },
          "indices": 7,
          "material": 0,
          "mode": 4
        }
      ]
    }
  ],
  "nodes": [
    {
      "children": [
        1
      ],
      "matrix": [
        1.0,
        0.0,
        0.0,
        0.0,
        0.0,
        2.220446049250313e-16,
        -1.0,
        0.0,
        0.0,
        1.0,
        2.220446049250313e-16,
        0.0,
        0.0,
        0.0,
        0.0,
        1.0
      ],
      "name": "Sketchfab_model"
    },
    {
      "children": [
        2
      ],
      "name": "root"
    },
    {
      "children": [
        3
      ],
      "matrix": [
        1.0,
        0.0,
        0.0,
        0.0,
        0.0,
        2.220446049250313e-16,
        1.0,
        0.0,
        0.0,
        -1.0,
        2.220446049250313e-16,
        0.0,
        0.0,
        0.0,
        0.0,
        1.0
      ],
      "name": "GLTF_SceneRootNode"
    },
    {
      "children": [
        4
      ],
      "name": "tripo_node_6773aeb8-c70a-41ca-9a17-86ca96f39d1b_0"
    },
    {
      "mesh": 0,
      "name": "Object_4"
    }
  ],
  "samplers": [
    {
      "magFilter": 9729,
      "minFilter": 9987,
      "wrapS": 10497,
      "wrapT": 10497
    }
  ],
  "scene": 0,
  "scenes": [
    {
      "name": "Sketchfab_Scene",
      "nodes": [
        0
      ]
    }
  ],
  "textures": [
    {
      "sampler": 0,
      "source": 0
    },
    {
      "sampler": 0,
      "source": 1
    },
    {
      "sampler": 0,
      "source": 2
    }
  ]
}
